<svg xmlns="http://www.w3.org/2000/svg" xmlns:xlink="http://www.w3.org/1999/xlink" width="104" height="144" viewBox="852.19 216.69 104 144"><title>quiet-repairprogrammeswhich-laws-help</title><g id="reveal-12"><g><path d="M860.77 303.88C861.61 303.88 862.36 303.75 863.04 303.49L864.22 305.10L865.99 305.10L864.32 302.79C865.78 301.68 866.62 299.79 866.62 297.33C866.62 293.31 864.37 290.78 860.77 290.78C857.18 290.78 854.93 293.31 854.93 297.33C854.93 301.36 857.18 303.88 860.77 303.88M860.77 302.42C858.18 302.42 856.55 300.45 856.55 297.33C856.55 294.20 858.18 292.24 860.77 292.24C863.37 292.24 864.99 294.20 864.99 297.33C864.99 299.20 864.41 300.66 863.39 301.52L862.31 300.04L860.54 300.04L862.12 302.22C861.70 302.35 861.26 302.42 860.77 302.42 M875.49 294.53L873.96 294.53L873.96 299.90C873.96 301.46 873.06 302.47 871.57 302.47C870.16 302.47 869.47 301.67 869.47 300.19L869.47 294.53L867.94 294.53L867.94 300.46C867.94 302.54 869.11 303.83 871.10 303.83C872.51 303.83 873.46 303.24 874 302.18L874.04 302.18L874.04 303.67L875.49 303.67 M877.18 303.67L878.71 303.67L878.71 294.53L877.18 294.53M877.95 292.99C878.48 292.99 878.91 292.56 878.91 292.04C878.91 291.51 878.48 291.09 877.95 291.09C877.43 291.09 877 291.51 877 292.04C877 292.56 877.43 292.99 877.95 292.99 M884.08 295.70C885.52 295.70 886.48 296.79 886.52 298.32L881.55 298.32C881.65 296.80 882.65 295.70 884.08 295.70M886.48 301.05C886.23 301.91 885.37 302.50 884.21 302.50C882.57 302.50 881.54 301.35 881.54 299.60L881.54 299.51L888.10 299.51L888.10 298.93C888.10 296.16 886.58 294.37 884.11 294.37C881.59 294.37 879.97 296.30 879.97 299.13C879.97 302.01 881.56 303.83 884.18 303.83C886.17 303.83 887.72 302.65 887.98 301.05 M889.77 292.32L889.77 294.53L888.41 294.53L888.41 295.79L889.77 295.79L889.77 301.30C889.77 303.05 890.42 303.74 892.10 303.74C892.46 303.74 892.88 303.71 893.07 303.67L893.07 302.39C892.96 302.40 892.61 302.43 892.43 302.43C891.65 302.43 891.30 302.05 891.30 301.22L891.30 295.79L893.07 295.79L893.07 294.53L891.30 294.53L891.30 292.32 M897.67 303.67L899.20 303.67L899.20 297.97C899.20 296.68 899.97 295.83 901.16 295.83C901.53 295.83 901.85 295.87 901.97 295.92L901.97 294.43C901.85 294.42 901.62 294.37 901.36 294.37C900.29 294.37 899.44 295.01 899.14 296.02L899.11 296.02L899.11 294.53L897.67 294.53 M906.08 295.70C907.52 295.70 908.48 296.79 908.52 298.32L903.55 298.32C903.65 296.80 904.65 295.70 906.08 295.70M908.48 301.05C908.23 301.91 907.37 302.50 906.21 302.50C904.57 302.50 903.54 301.35 903.54 299.60L903.54 299.51L910.10 299.51L910.10 298.93C910.10 296.16 908.58 294.37 906.11 294.37C903.59 294.37 901.97 296.30 901.97 299.13C901.97 302.01 903.56 303.83 906.18 303.83C908.17 303.83 909.72 302.65 909.98 301.05 M915.72 294.37C914.39 294.37 913.32 295.05 912.76 296.08L912.73 296.08L912.73 294.53L911.28 294.53L911.28 306.72L912.81 306.72L912.81 302.18L912.84 302.18C913.39 303.19 914.44 303.83 915.75 303.83C918.05 303.83 919.63 301.96 919.63 299.10C919.63 296.23 918.04 294.37 915.72 294.37M915.42 302.48C913.85 302.48 912.80 301.14 912.80 299.10C912.80 297.07 913.85 295.72 915.42 295.72C917.04 295.72 918.06 297.03 918.06 299.10C918.06 301.17 917.04 302.48 915.42 302.48 M923.82 302.53C922.72 302.53 921.99 301.96 921.99 301.09C921.99 300.22 922.70 299.68 923.93 299.60L926.37 299.45L926.37 300.20C926.37 301.52 925.26 302.53 923.82 302.53M923.48 303.83C924.71 303.83 925.87 303.14 926.42 302.10L926.45 302.10L926.45 303.67L927.90 303.67L927.90 297.35C927.90 295.53 926.55 294.37 924.40 294.37C922.24 294.37 920.89 295.58 920.78 297.17L922.26 297.17C922.45 296.27 923.19 295.72 924.37 295.72C925.63 295.72 926.37 296.38 926.37 297.50L926.37 298.26L923.75 298.41C921.64 298.54 920.44 299.52 920.44 301.09C920.44 302.73 921.66 303.83 923.48 303.83 M929.56 303.67L931.09 303.67L931.09 294.53L929.56 294.53M930.32 292.99C930.85 292.99 931.28 292.56 931.28 292.04C931.28 291.51 930.85 291.09 930.32 291.09C929.81 291.09 929.37 291.51 929.37 292.04C929.37 292.56 929.81 292.99 930.32 292.99 M932.79 303.67L934.32 303.67L934.32 297.97C934.32 296.68 935.10 295.83 936.28 295.83C936.65 295.83 936.98 295.87 937.10 295.92L937.10 294.43C936.98 294.42 936.75 294.37 936.48 294.37C935.41 294.37 934.57 295.01 934.27 296.02L934.23 296.02L934.23 294.53L932.79 294.53" fill="#000000" stroke="#000000" stroke-width="0.750" stroke-linejoin="round"/><path d="M859.62 317.76C858.29 317.76 857.23 318.44 856.67 319.47L856.63 319.47L856.63 317.92L855.18 317.92L855.18 330.11L856.71 330.11L856.71 325.57L856.75 325.57C857.29 326.58 858.35 327.22 859.66 327.22C861.96 327.22 863.53 325.35 863.53 322.49C863.53 319.62 861.95 317.76 859.62 317.76M859.32 325.87C857.76 325.87 856.70 324.53 856.70 322.49C856.70 320.46 857.76 319.11 859.32 319.11C860.95 319.11 861.97 320.42 861.97 322.49C861.97 324.56 860.95 325.87 859.32 325.87 M864.70 327.06L866.23 327.06L866.23 321.36C866.23 320.07 867 319.22 868.19 319.22C868.56 319.22 868.88 319.26 869.01 319.31L869.01 317.82C868.88 317.81 868.65 317.76 868.39 317.76C867.32 317.76 866.47 318.40 866.18 319.41L866.14 319.41L866.14 317.92L864.70 317.92 M873.24 327.22C875.76 327.22 877.46 325.40 877.46 322.49C877.46 319.57 875.76 317.76 873.24 317.76C870.71 317.76 869 319.57 869 322.49C869 325.40 870.71 327.22 873.24 327.22M873.24 325.87C871.62 325.87 870.56 324.64 870.56 322.49C870.56 320.34 871.62 319.11 873.24 319.11C874.85 319.11 875.91 320.34 875.91 322.49C875.91 324.64 874.85 325.87 873.24 325.87 M882.35 325.79C880.78 325.79 879.75 324.50 879.75 322.45C879.75 320.41 880.78 319.11 882.35 319.11C883.94 319.11 885.01 320.44 885.01 322.45C885.01 324.47 883.94 325.79 882.35 325.79M882.41 330.51C884.93 330.51 886.54 329.06 886.54 326.88L886.54 317.92L885.08 317.92L885.08 319.46L885.05 319.46C884.45 318.39 883.37 317.76 882.08 317.76C879.72 317.76 878.19 319.59 878.19 322.45C878.19 325.29 879.72 327.13 882.05 327.13C883.33 327.13 884.41 326.48 884.97 325.49L885.01 325.49L885.01 326.93C885.01 328.29 884.05 329.20 882.47 329.20C881.33 329.20 880.42 328.65 880.12 327.82L878.55 327.82C878.80 329.37 880.39 330.51 882.41 330.51 M888.17 327.06L889.70 327.06L889.70 321.36C889.70 320.07 890.47 319.22 891.66 319.22C892.03 319.22 892.35 319.26 892.47 319.31L892.47 317.82C892.35 317.81 892.12 317.76 891.86 317.76C890.79 317.76 889.94 318.40 889.64 319.41L889.61 319.41L889.61 317.92L888.17 317.92 M896.20 325.92C895.10 325.92 894.37 325.35 894.37 324.48C894.37 323.61 895.07 323.07 896.30 322.99L898.75 322.84L898.75 323.59C898.75 324.91 897.64 325.92 896.20 325.92M895.86 327.22C897.09 327.22 898.25 326.53 898.79 325.49L898.83 325.49L898.83 327.06L900.28 327.06L900.28 320.74C900.28 318.92 898.92 317.76 896.78 317.76C894.62 317.76 893.26 318.97 893.16 320.56L894.63 320.56C894.83 319.66 895.57 319.11 896.74 319.11C898.01 319.11 898.75 319.77 898.75 320.89L898.75 321.65L896.13 321.80C894.02 321.93 892.81 322.91 892.81 324.48C892.81 326.12 894.04 327.22 895.86 327.22 M901.86 327.06L903.38 327.06L903.38 321.33C903.38 320.06 904.26 319.11 905.48 319.11C906.61 319.11 907.35 319.84 907.35 320.93L907.35 327.06L908.88 327.06L908.88 321.25C908.88 320.01 909.73 319.11 910.94 319.11C912.15 319.11 912.84 319.85 912.84 321.10L912.84 327.06L914.37 327.06L914.37 320.75C914.37 318.94 913.20 317.76 911.39 317.76C910.11 317.76 909.04 318.41 908.53 319.50L908.49 319.50C908.10 318.39 907.17 317.76 905.92 317.76C904.69 317.76 903.76 318.41 903.33 319.38L903.30 319.38L903.30 317.92L901.86 317.92 M915.95 327.06L917.48 327.06L917.48 321.33C917.48 320.06 918.36 319.11 919.57 319.11C920.70 319.11 921.44 319.84 921.44 320.93L921.44 327.06L922.97 327.06L922.97 321.25C922.97 320.01 923.82 319.11 925.04 319.11C926.24 319.11 926.94 319.85 926.94 321.10L926.94 327.06L928.46 327.06L928.46 320.75C928.46 318.94 927.30 317.76 925.48 317.76C924.20 317.76 923.13 318.41 922.62 319.50L922.58 319.50C922.19 318.39 921.27 317.76 920.02 317.76C918.79 317.76 917.86 318.41 917.43 319.38L917.39 319.38L917.39 317.92L915.95 317.92 M933.72 319.09C935.16 319.09 936.12 320.18 936.16 321.71L931.19 321.71C931.29 320.19 932.29 319.09 933.72 319.09M936.12 324.44C935.87 325.30 935.02 325.89 933.86 325.89C932.21 325.89 931.18 324.74 931.18 322.99L931.18 322.90L937.74 322.90L937.74 322.32C937.74 319.55 936.22 317.76 933.75 317.76C931.23 317.76 929.61 319.69 929.61 322.52C929.61 325.40 931.20 327.22 933.82 327.22C935.82 327.22 937.36 326.04 937.63 324.44 M938.76 320.44C938.76 321.69 939.55 322.52 941.16 322.93L942.77 323.34C943.80 323.61 944.17 323.97 944.17 324.62C944.17 325.44 943.41 325.97 942.17 325.97C940.93 325.97 940.21 325.46 940.04 324.51L938.51 324.51C938.67 326.13 940.07 327.22 942.07 327.22C944.21 327.22 945.71 326.09 945.71 324.50C945.71 323.16 945.04 322.49 943.20 322.02L941.78 321.68C940.75 321.42 940.26 321 940.26 320.36C940.26 319.56 941 319.01 942.12 319.01C943.24 319.01 943.95 319.55 944.06 320.43L945.52 320.43C945.45 318.89 944.06 317.76 942.17 317.76C940.16 317.76 938.76 318.88 938.76 320.44" fill="#000000" stroke="#000000" stroke-width="0.750" stroke-linejoin="round"/></g><g><path d="M860.16 349.38L860.23 349.38L862.34 356.65L863.42 356.65L865.91 347.49L864.72 347.49L862.89 354.97L862.84 354.97L860.77 347.49L859.62 347.49L857.55 354.97L857.50 354.97L855.67 347.49L854.48 347.49L856.97 356.65L858.05 356.65 M866.87 356.65L867.98 356.65L867.98 352.80C867.98 351.66 868.65 350.91 869.75 350.91C870.79 350.91 871.31 351.54 871.31 352.59L871.31 356.65L872.42 356.65L872.42 352.38C872.42 350.91 871.54 349.93 870.10 349.93C869.09 349.93 868.37 350.37 868 351.10L867.98 351.10L867.98 347.49L866.87 347.49 M873.78 356.65L874.88 356.65L874.88 350.05L873.78 350.05M874.33 348.94C874.71 348.94 875.02 348.63 875.02 348.25C875.02 347.87 874.71 347.57 874.33 347.57C873.95 347.57 873.64 347.87 873.64 348.25C873.64 348.63 873.95 348.94 874.33 348.94 M881.75 352.21C881.61 351.03 880.63 349.93 878.98 349.93C877.16 349.93 875.94 351.27 875.94 353.35C875.94 355.48 877.16 356.76 878.99 356.76C880.49 356.76 881.59 355.84 881.76 354.52L880.68 354.52C880.49 355.32 879.90 355.79 879 355.79C877.85 355.79 877.07 354.89 877.07 353.35C877.07 351.85 877.84 350.91 878.98 350.91C879.95 350.91 880.51 351.50 880.67 352.21 M882.75 356.65L883.85 356.65L883.85 352.80C883.85 351.66 884.53 350.91 885.63 350.91C886.66 350.91 887.19 351.54 887.19 352.59L887.19 356.65L888.29 356.65L888.29 352.38C888.29 350.91 887.42 349.93 885.97 349.93C884.97 349.93 884.24 350.37 883.88 351.10L883.85 351.10L883.85 347.49L882.75 347.49 M892.21 356.65L893.32 356.65L893.32 347.49L892.21 347.49 M896.88 355.82C896.09 355.82 895.56 355.41 895.56 354.78C895.56 354.16 896.07 353.77 896.96 353.71L898.72 353.60L898.72 354.14C898.72 355.09 897.92 355.82 896.88 355.82M896.63 356.76C897.52 356.76 898.36 356.27 898.75 355.51L898.78 355.51L898.78 356.65L899.83 356.65L899.83 352.09C899.83 350.77 898.85 349.93 897.30 349.93C895.74 349.93 894.76 350.81 894.69 351.95L895.75 351.95C895.89 351.31 896.42 350.91 897.27 350.91C898.19 350.91 898.72 351.39 898.72 352.19L898.72 352.75L896.83 352.85C895.31 352.94 894.44 353.65 894.44 354.78C894.44 355.97 895.32 356.76 896.63 356.76 M909.54 350.05L908.45 350.05L907.13 355.42L907.10 355.42L905.60 350.05L904.54 350.05L903.05 355.42L903.02 355.42L901.70 350.05L900.60 350.05L902.45 356.65L903.57 356.65L905.06 351.54L905.08 351.54L906.58 356.65L907.70 356.65 M910.21 351.87C910.21 352.77 910.79 353.37 911.95 353.67L913.11 353.96C913.85 354.16 914.13 354.42 914.13 354.89C914.13 355.48 913.57 355.86 912.68 355.86C911.78 355.86 911.26 355.49 911.14 354.81L910.04 354.81C910.15 355.98 911.16 356.76 912.61 356.76C914.15 356.76 915.24 355.95 915.24 354.80C915.24 353.83 914.75 353.35 913.42 353.01L912.40 352.77C911.65 352.57 911.30 352.27 911.30 351.81C911.30 351.24 911.83 350.84 912.64 350.84C913.45 350.84 913.97 351.23 914.04 351.86L915.10 351.86C915.05 350.75 914.04 349.93 912.68 349.93C911.22 349.93 910.21 350.74 910.21 351.87 M918.90 356.65L920.01 356.65L920.01 352.80C920.01 351.66 920.69 350.91 921.78 350.91C922.82 350.91 923.35 351.54 923.35 352.59L923.35 356.65L924.45 356.65L924.45 352.38C924.45 350.91 923.57 349.93 922.13 349.93C921.12 349.93 920.40 350.37 920.03 351.10L920.01 351.10L920.01 347.49L918.90 347.49 M928.40 350.89C929.44 350.89 930.13 351.68 930.16 352.78L926.57 352.78C926.64 351.69 927.36 350.89 928.40 350.89M930.13 354.76C929.95 355.38 929.33 355.81 928.49 355.81C927.31 355.81 926.56 354.97 926.56 353.71L926.56 353.65L931.30 353.65L931.30 353.23C931.30 351.23 930.20 349.93 928.42 349.93C926.60 349.93 925.43 351.32 925.43 353.37C925.43 355.45 926.58 356.76 928.47 356.76C929.91 356.76 931.03 355.91 931.22 354.76 M932.37 356.65L933.48 356.65L933.48 347.49L932.37 347.49 M938.08 349.93C937.12 349.93 936.36 350.42 935.95 351.17L935.92 351.17L935.92 350.05L934.88 350.05L934.88 358.85L935.98 358.85L935.98 355.58L936.01 355.58C936.40 356.30 937.16 356.76 938.11 356.76C939.77 356.76 940.91 355.42 940.91 353.35C940.91 351.28 939.76 349.93 938.08 349.93M937.87 355.79C936.74 355.79 935.97 354.82 935.97 353.35C935.97 351.88 936.74 350.91 937.87 350.91C939.04 350.91 939.78 351.86 939.78 353.35C939.78 354.85 939.04 355.79 937.87 355.79" fill="#0071e3"/><g><path d="M952.65 352.84L952.65 347.49L947.30 347.49L947.30 348.47L950.99 348.47L945.69 353.76L946.39 354.45L951.67 349.15" fill="#0071e3"/></g></g></g></svg>