<svg xmlns="http://www.w3.org/2000/svg" xmlns:xlink="http://www.w3.org/1999/xlink" width="515" height="114" viewBox="172.00 611.15 515 114"><title>envform</title><defs><clipPath id="clip5"><rect x="147.00" y="323.00" width="1136.00" height="236.17" rx="12.00"></rect></clipPath><clipPath id="clip7"><rect x="1011.00" y="688.75" width="244.00" height="4.00" rx="2.00"></rect></clipPath><clipPath id="clip8"><rect x="147.00" y="583.17" width="1136.00" height="167.98" rx="12.00"></rect></clipPath></defs><g id="envForm"><g><path d="M175.62 625.66C175.77 627.90 177.64 629.36 180.33 629.36C183.24 629.36 185.07 627.91 185.07 625.59C185.07 623.77 184.01 622.76 181.38 622.10L180.05 621.75C178.33 621.30 177.63 620.73 177.63 619.77C177.63 618.53 178.77 617.68 180.41 617.68C182.07 617.68 183.17 618.52 183.31 619.88L184.89 619.88C184.82 617.75 182.99 616.26 180.47 616.26C177.83 616.26 175.98 617.73 175.98 619.84C175.98 621.57 177.02 622.59 179.36 623.19L180.99 623.61C182.69 624.05 183.44 624.71 183.44 625.78C183.44 627.03 182.19 627.94 180.48 627.94C178.67 627.94 177.36 627.03 177.21 625.66 M189.97 621.18C191.41 621.18 192.37 622.27 192.41 623.80L187.44 623.80C187.54 622.28 188.54 621.18 189.97 621.18M192.37 626.53C192.12 627.39 191.26 627.98 190.10 627.98C188.46 627.98 187.43 626.83 187.43 625.08L187.43 624.99L193.99 624.99L193.99 624.41C193.99 621.64 192.47 619.85 190 619.85C187.47 619.85 185.86 621.78 185.86 624.61C185.86 627.49 187.45 629.31 190.07 629.31C192.06 629.31 193.61 628.13 193.87 626.53 M198.83 621.18C200.27 621.18 201.23 622.27 201.26 623.80L196.30 623.80C196.40 622.28 197.40 621.18 198.83 621.18M201.23 626.53C200.97 627.39 200.12 627.98 198.96 627.98C197.32 627.98 196.29 626.83 196.29 625.08L196.29 624.99L202.85 624.99L202.85 624.41C202.85 621.64 201.33 619.85 198.86 619.85C196.33 619.85 194.72 621.78 194.72 624.61C194.72 627.49 196.31 629.31 198.93 629.31C200.92 629.31 202.47 628.13 202.73 626.53 M219 620.01L217.48 620.01L215.66 627.44L215.62 627.44L213.55 620.01L212.07 620.01L210 627.44L209.97 627.44L208.14 620.01L206.62 620.01L209.18 629.15L210.73 629.15L212.79 622.07L212.83 622.07L214.89 629.15L216.45 629.15 M219.96 629.15L221.49 629.15L221.49 623.82C221.49 622.24 222.43 621.20 223.95 621.20C225.39 621.20 226.12 622.07 226.12 623.53L226.12 629.15L227.64 629.15L227.64 623.24C227.64 621.20 226.43 619.85 224.43 619.85C223.04 619.85 222.04 620.45 221.53 621.47L221.49 621.47L221.49 616.47L219.96 616.47 M232.24 628.01C231.14 628.01 230.41 627.44 230.41 626.57C230.41 625.70 231.12 625.16 232.35 625.08L234.79 624.93L234.79 625.68C234.79 627 233.68 628.01 232.24 628.01M231.90 629.31C233.13 629.31 234.29 628.62 234.83 627.58L234.87 627.58L234.87 629.15L236.32 629.15L236.32 622.83C236.32 621.01 234.97 619.85 232.82 619.85C230.66 619.85 229.31 621.06 229.20 622.65L230.68 622.65C230.87 621.75 231.61 621.20 232.79 621.20C234.05 621.20 234.79 621.86 234.79 622.98L234.79 623.74L232.17 623.89C230.06 624.02 228.86 625 228.86 626.57C228.86 628.21 230.08 629.31 231.90 629.31 M238.39 617.80L238.39 620.01L237.03 620.01L237.03 621.27L238.39 621.27L238.39 626.78C238.39 628.53 239.04 629.22 240.72 629.22C241.08 629.22 241.50 629.19 241.69 629.15L241.69 627.87C241.58 627.88 241.23 627.91 241.05 627.91C240.27 627.91 239.92 627.53 239.92 626.70L239.92 621.27L241.70 621.27L241.70 620.01L239.92 620.01L239.92 617.80 M246.13 622.53C246.13 623.78 246.92 624.61 248.53 625.02L250.14 625.43C251.17 625.70 251.55 626.06 251.55 626.71C251.55 627.53 250.78 628.06 249.54 628.06C248.30 628.06 247.58 627.55 247.42 626.60L245.89 626.60C246.04 628.22 247.44 629.31 249.45 629.31C251.58 629.31 253.08 628.18 253.08 626.59C253.08 625.25 252.42 624.58 250.57 624.11L249.16 623.77C248.12 623.51 247.63 623.09 247.63 622.45C247.63 621.65 248.37 621.10 249.49 621.10C250.61 621.10 251.33 621.64 251.43 622.52L252.89 622.52C252.82 620.98 251.43 619.85 249.54 619.85C247.53 619.85 246.13 620.97 246.13 622.53 M254.80 617.80L254.80 620.01L253.44 620.01L253.44 621.27L254.80 621.27L254.80 626.78C254.80 628.53 255.45 629.22 257.13 629.22C257.49 629.22 257.91 629.19 258.09 629.15L258.09 627.87C257.99 627.88 257.64 627.91 257.46 627.91C256.68 627.91 256.33 627.53 256.33 626.70L256.33 621.27L258.10 621.27L258.10 620.01L256.33 620.01L256.33 617.80 M259.45 629.15L260.98 629.15L260.98 620.01L259.45 620.01M260.21 618.47C260.74 618.47 261.17 618.04 261.17 617.52C261.17 616.99 260.74 616.57 260.21 616.57C259.69 616.57 259.26 616.99 259.26 617.52C259.26 618.04 259.69 618.47 260.21 618.47 M262.76 629.15L264.29 629.15L264.29 616.47L262.76 616.47 M266.07 629.15L267.60 629.15L267.60 616.47L266.07 616.47 M280.24 623.01C280.05 621.36 278.69 619.85 276.40 619.85C273.88 619.85 272.20 621.70 272.20 624.58C272.20 627.52 273.89 629.31 276.42 629.31C278.49 629.31 280.02 628.03 280.26 626.21L278.76 626.21C278.49 627.30 277.68 627.96 276.43 627.96C274.85 627.96 273.76 626.71 273.76 624.58C273.76 622.51 274.83 621.20 276.41 621.20C277.76 621.20 278.53 622.01 278.75 623.01 M285.09 629.31C287.62 629.31 289.32 627.49 289.32 624.58C289.32 621.66 287.62 619.85 285.09 619.85C282.56 619.85 280.86 621.66 280.86 624.58C280.86 627.49 282.56 629.31 285.09 629.31M285.09 627.96C283.48 627.96 282.41 626.73 282.41 624.58C282.41 622.43 283.48 621.20 285.09 621.20C286.71 621.20 287.77 622.43 287.77 624.58C287.77 626.73 286.71 627.96 285.09 627.96 M297.72 620.01L296.13 620.01L293.60 627.52L293.57 627.52L291.04 620.01L289.44 620.01L292.80 629.15L294.37 629.15 M301.97 621.18C303.41 621.18 304.37 622.27 304.41 623.80L299.44 623.80C299.54 622.28 300.54 621.18 301.97 621.18M304.37 626.53C304.12 627.39 303.26 627.98 302.10 627.98C300.46 627.98 299.43 626.83 299.43 625.08L299.43 624.99L305.99 624.99L305.99 624.41C305.99 621.64 304.47 619.85 302 619.85C299.47 619.85 297.86 621.78 297.86 624.61C297.86 627.49 299.45 629.31 302.07 629.31C304.06 629.31 305.61 628.13 305.87 626.53 M307.17 629.15L308.69 629.15L308.69 623.45C308.69 622.16 309.47 621.31 310.65 621.31C311.02 621.31 311.35 621.35 311.47 621.40L311.47 619.91C311.35 619.90 311.12 619.85 310.86 619.85C309.78 619.85 308.94 620.49 308.64 621.50L308.61 621.50L308.61 620.01L307.17 620.01 M312.19 622.53C312.19 623.78 312.99 624.61 314.59 625.02L316.20 625.43C317.23 625.70 317.61 626.06 317.61 626.71C317.61 627.53 316.84 628.06 315.60 628.06C314.37 628.06 313.64 627.55 313.48 626.60L311.95 626.60C312.11 628.22 313.50 629.31 315.51 629.31C317.64 629.31 319.15 628.18 319.15 626.59C319.15 625.25 318.48 624.58 316.63 624.11L315.22 623.77C314.18 623.51 313.70 623.09 313.70 622.45C313.70 621.65 314.44 621.10 315.55 621.10C316.68 621.10 317.39 621.64 317.49 622.52L318.95 622.52C318.88 620.98 317.49 619.85 315.60 619.85C313.59 619.85 312.19 620.97 312.19 622.53 M324.45 632.57C326.10 632.57 326.86 631.93 327.64 629.79L331.24 620.01L329.63 620.01L327.10 627.62L327.07 627.62L324.54 620.01L322.91 620.01L326.28 629.16L326.07 629.80C325.72 630.86 325.24 631.28 324.39 631.28C324.20 631.28 323.96 631.27 323.79 631.23L323.79 632.52C323.96 632.55 324.27 632.57 324.45 632.57 M335.61 629.31C338.13 629.31 339.84 627.49 339.84 624.58C339.84 621.66 338.13 619.85 335.61 619.85C333.08 619.85 331.37 621.66 331.37 624.58C331.37 627.49 333.08 629.31 335.61 629.31M335.61 627.96C333.99 627.96 332.93 626.73 332.93 624.58C332.93 622.43 333.99 621.20 335.61 621.20C337.23 621.20 338.28 622.43 338.28 624.58C338.28 626.73 337.23 627.96 335.61 627.96 M348.51 620.01L346.99 620.01L346.99 625.38C346.99 626.94 346.09 627.95 344.60 627.95C343.19 627.95 342.49 627.15 342.49 625.67L342.49 620.01L340.96 620.01L340.96 625.94C340.96 628.02 342.13 629.31 344.13 629.31C345.54 629.31 346.48 628.72 347.03 627.66L347.06 627.66L347.06 629.15L348.51 629.15 M351.43 629.24C351.99 629.24 352.43 628.80 352.43 628.24C352.43 627.67 351.99 627.23 351.43 627.23C350.86 627.23 350.42 627.67 350.42 628.24C350.42 628.80 350.86 629.24 351.43 629.24" fill="#000000" stroke="#000000" stroke-width="0.750" stroke-linejoin="round"/></g><g><g><g><path d="M180.51 659.17L180.57 659.17L182.52 665.88L183.52 665.88L185.82 657.42L184.72 657.42L183.03 664.33L182.98 664.33L181.08 657.42L180.01 657.42L178.11 664.33L178.06 664.33L176.37 657.42L175.26 657.42L177.57 665.88L178.56 665.88 M186.70 665.88L187.72 665.88L187.72 662.33C187.72 661.27 188.35 660.58 189.36 660.58C190.31 660.58 190.80 661.16 190.80 662.13L190.80 665.88L191.82 665.88L191.82 661.94C191.82 660.58 191.01 659.68 189.68 659.68C188.75 659.68 188.08 660.08 187.74 660.76L187.72 660.76L187.72 657.42L186.70 657.42 M195.45 660.57C196.41 660.57 197.05 661.29 197.07 662.31L193.76 662.31C193.83 661.30 194.49 660.57 195.45 660.57M197.05 664.13C196.88 664.71 196.31 665.10 195.54 665.10C194.44 665.10 193.76 664.33 193.76 663.17L193.76 663.11L198.13 663.11L198.13 662.72C198.13 660.88 197.11 659.68 195.47 659.68C193.79 659.68 192.71 660.96 192.71 662.86C192.71 664.77 193.77 665.99 195.51 665.99C196.84 665.99 197.88 665.20 198.05 664.13 M199.05 665.88L200.07 665.88L200.07 662.08C200.07 661.22 200.59 660.65 201.38 660.65C201.63 660.65 201.84 660.68 201.92 660.71L201.92 659.72C201.84 659.71 201.69 659.68 201.51 659.68C200.80 659.68 200.24 660.11 200.04 660.78L200.01 660.78L200.01 659.79L199.05 659.79 M204.81 660.57C205.77 660.57 206.41 661.29 206.43 662.31L203.12 662.31C203.19 661.30 203.85 660.57 204.81 660.57M206.41 664.13C206.24 664.71 205.67 665.10 204.90 665.10C203.80 665.10 203.12 664.33 203.12 663.17L203.12 663.11L207.49 663.11L207.49 662.72C207.49 660.88 206.47 659.68 204.83 659.68C203.14 659.68 202.07 660.96 202.07 662.86C202.07 664.77 203.13 665.99 204.87 665.99C206.20 665.99 207.23 665.20 207.41 664.13 M211.28 668.16C212.38 668.16 212.88 667.73 213.40 666.31L215.80 659.79L214.73 659.79L213.04 664.86L213.02 664.86L211.33 659.79L210.24 659.79L212.49 665.89L212.35 666.31C212.12 667.02 211.80 667.30 211.23 667.30C211.11 667.30 210.95 667.29 210.84 667.27L210.84 668.12C210.95 668.15 211.15 668.16 211.28 668.16 M218.84 665.99C220.53 665.99 221.66 664.77 221.66 662.83C221.66 660.89 220.53 659.68 218.84 659.68C217.16 659.68 216.02 660.89 216.02 662.83C216.02 664.77 217.16 665.99 218.84 665.99M218.84 665.09C217.77 665.09 217.06 664.27 217.06 662.83C217.06 661.40 217.77 660.58 218.84 660.58C219.92 660.58 220.63 661.40 220.63 662.83C220.63 664.27 219.92 665.09 218.84 665.09 M227.59 659.79L226.57 659.79L226.57 663.37C226.57 664.40 225.97 665.08 224.98 665.08C224.04 665.08 223.57 664.55 223.57 663.56L223.57 659.79L222.55 659.79L222.55 663.74C222.55 665.12 223.33 665.99 224.66 665.99C225.60 665.99 226.23 665.59 226.60 664.89L226.62 664.89L226.62 665.88L227.59 665.88 M231.23 665.88L232.25 665.88L232.25 657.42L231.23 657.42 M233.57 665.88L234.59 665.88L234.59 659.79L233.57 659.79M234.08 658.76C234.44 658.76 234.72 658.47 234.72 658.13C234.72 657.78 234.44 657.50 234.08 657.50C233.74 657.50 233.45 657.78 233.45 658.13C233.45 658.47 233.74 658.76 234.08 658.76 M240.86 659.79L239.80 659.79L238.12 664.80L238.09 664.80L236.41 659.79L235.34 659.79L237.58 665.88L238.63 665.88 M243.84 660.57C244.80 660.57 245.44 661.29 245.46 662.31L242.15 662.31C242.22 661.30 242.88 660.57 243.84 660.57M245.44 664.13C245.27 664.71 244.70 665.10 243.93 665.10C242.83 665.10 242.15 664.33 242.15 663.17L242.15 663.11L246.52 663.11L246.52 662.72C246.52 660.88 245.50 659.68 243.86 659.68C242.18 659.68 241.10 660.96 241.10 662.86C241.10 664.77 242.16 665.99 243.90 665.99C245.23 665.99 246.27 665.20 246.44 664.13" fill="#000000" stroke="#000000" stroke-width="0.500" stroke-linejoin="round"/></g></g><g><g><path d="M446.07 665.88L446.07 657.42L445.02 657.42L445.02 661.08L440.38 661.08L440.38 657.42L439.32 657.42L439.32 665.88L440.38 665.88L440.38 662.03L445.02 662.03L445.02 665.88 M449.97 665.99C451.65 665.99 452.79 664.77 452.79 662.83C452.79 660.89 451.65 659.68 449.97 659.68C448.28 659.68 447.14 660.89 447.14 662.83C447.14 664.77 448.28 665.99 449.97 665.99M449.97 665.09C448.89 665.09 448.18 664.27 448.18 662.83C448.18 661.40 448.89 660.58 449.97 660.58C451.05 660.58 451.75 661.40 451.75 662.83C451.75 664.27 451.05 665.09 449.97 665.09 M461.46 659.79L460.45 659.79L459.23 664.74L459.21 664.74L457.83 659.79L456.84 659.79L455.47 664.74L455.44 664.74L454.22 659.79L453.21 659.79L454.92 665.88L455.95 665.88L457.32 661.16L457.35 661.16L458.72 665.88L459.76 665.88 M467.08 665.99C468.76 665.99 469.90 664.77 469.90 662.83C469.90 660.89 468.76 659.68 467.08 659.68C465.39 659.68 464.25 660.89 464.25 662.83C464.25 664.77 465.39 665.99 467.08 665.99M467.08 665.09C466 665.09 465.29 664.27 465.29 662.83C465.29 661.40 466 660.58 467.08 660.58C468.16 660.58 468.86 661.40 468.86 662.83C468.86 664.27 468.16 665.09 467.08 665.09 M470.89 665.88L471.91 665.88L471.91 657.42L470.89 657.42 M475.49 665.99C476.37 665.99 477.06 665.55 477.46 664.85L477.47 664.85L477.47 665.88L478.45 665.88L478.45 657.42L477.43 657.42L477.43 660.78L477.40 660.78C477.04 660.11 476.34 659.68 475.46 659.68C473.93 659.68 472.88 660.92 472.88 662.83C472.88 664.74 473.93 665.99 475.49 665.99M475.68 660.58C476.73 660.58 477.43 661.47 477.43 662.83C477.43 664.20 476.73 665.09 475.68 665.09C474.60 665.09 473.92 664.22 473.92 662.83C473.92 661.46 474.60 660.58 475.68 660.58 M482.14 665.88L483.16 665.88L483.16 659.79L482.14 659.79M482.65 658.76C483 658.76 483.29 658.47 483.29 658.13C483.29 657.78 483 657.50 482.65 657.50C482.30 657.50 482.01 657.78 482.01 658.13C482.01 658.47 482.30 658.76 482.65 658.76 M484.76 658.32L484.76 659.79L483.85 659.79L483.85 660.62L484.76 660.62L484.76 664.30C484.76 665.47 485.19 665.93 486.31 665.93C486.55 665.93 486.83 665.91 486.95 665.88L486.95 665.02C486.88 665.04 486.65 665.05 486.53 665.05C486.01 665.05 485.78 664.80 485.78 664.25L485.78 660.62L486.96 660.62L486.96 659.79L485.78 659.79L485.78 658.32 M490.36 665.88L491.38 665.88L491.38 659.79L490.36 659.79M490.87 658.76C491.22 658.76 491.50 658.47 491.50 658.13C491.50 657.78 491.22 657.50 490.87 657.50C490.52 657.50 490.23 657.78 490.23 658.13C490.23 658.47 490.52 658.76 490.87 658.76 M492.56 661.47C492.56 662.30 493.08 662.85 494.16 663.13L495.23 663.40C495.91 663.58 496.17 663.82 496.17 664.25C496.17 664.80 495.66 665.15 494.83 665.15C494 665.15 493.52 664.81 493.41 664.18L492.39 664.18C492.50 665.26 493.43 665.99 494.77 665.99C496.19 665.99 497.19 665.24 497.19 664.17C497.19 663.28 496.75 662.83 495.52 662.52L494.57 662.29C493.88 662.12 493.56 661.84 493.56 661.42C493.56 660.88 494.05 660.51 494.79 660.51C495.54 660.51 496.02 660.88 496.09 661.46L497.06 661.46C497.02 660.43 496.09 659.68 494.83 659.68C493.49 659.68 492.56 660.42 492.56 661.47" fill="#000000" stroke="#000000" stroke-width="0.500" stroke-linejoin="round"/></g></g></g></g></svg>