<svg xmlns="http://www.w3.org/2000/svg" xmlns:xlink="http://www.w3.org/1999/xlink" width="250" height="46" viewBox="437.50 678.16 250 46"><title>under-a-year</title><defs><clipPath id="clip5"><rect x="147.00" y="323.00" width="1136.00" height="236.17" rx="12.00"></rect></clipPath><clipPath id="clip7"><rect x="1011.00" y="688.75" width="244.00" height="4.00" rx="2.00"></rect></clipPath><clipPath id="clip8"><rect x="147.00" y="583.17" width="1136.00" height="167.98" rx="12.00"></rect></clipPath></defs><g id="envAge"><rect x="438.50" y="679.16" width="247.50" height="44.00" rx="22.00" fill="#ffffff"></rect><rect x="439.00" y="679.66" width="246.50" height="43.00" rx="21.50" fill="none" stroke="#e5e5e5" stroke-width="1.00"></rect><path d="M457 695.65L455.59 695.65L455.59 702.97C455.59 705.37 457.27 707.11 460.07 707.11C462.87 707.11 464.55 705.37 464.55 702.97L464.55 695.65L463.14 695.65L463.14 702.87C463.14 704.58 462.02 705.81 460.07 705.81C458.12 705.81 457 704.58 457 702.87 M467.18 706.92L468.54 706.92L468.54 702.14C468.54 700.76 469.38 699.86 470.66 699.86C471.91 699.86 472.52 700.58 472.52 701.89L472.52 706.92L473.88 706.92L473.88 701.65C473.88 699.80 472.85 698.65 471.07 698.65C469.81 698.65 468.95 699.22 468.49 700.09L468.46 700.09L468.46 698.79L467.18 698.79 M479.80 707.06C480.98 707.06 481.91 706.48 482.43 705.54L482.45 705.54L482.45 706.92L483.75 706.92L483.75 695.65L482.39 695.65L482.39 700.12L482.36 700.12C481.88 699.22 480.94 698.65 479.77 698.65C477.73 698.65 476.33 700.31 476.33 702.86C476.33 705.40 477.73 707.06 479.80 707.06M480.06 699.85C481.46 699.85 482.40 701.04 482.40 702.86C482.40 704.68 481.46 705.87 480.06 705.87C478.63 705.87 477.72 704.70 477.72 702.86C477.72 701.02 478.63 699.85 480.06 699.85 M490 699.83C491.28 699.83 492.13 700.80 492.16 702.16L487.75 702.16C487.84 700.81 488.73 699.83 490 699.83M492.13 704.59C491.91 705.36 491.15 705.88 490.12 705.88C488.66 705.88 487.74 704.86 487.74 703.30L487.74 703.22L493.57 703.22L493.57 702.71C493.57 700.25 492.22 698.65 490.02 698.65C487.78 698.65 486.34 700.37 486.34 702.89C486.34 705.44 487.76 707.06 490.09 707.06C491.86 707.06 493.23 706.01 493.47 704.59 M496.15 706.92L497.51 706.92L497.51 701.86C497.51 700.71 498.20 699.95 499.25 699.95C499.58 699.95 499.87 699.99 499.98 700.03L499.98 698.71C499.87 698.69 499.66 698.65 499.43 698.65C498.48 698.65 497.73 699.22 497.46 700.12L497.43 700.12L497.43 698.79L496.15 698.79 M509.20 705.90C508.23 705.90 507.58 705.40 507.58 704.62C507.58 703.86 508.20 703.37 509.30 703.30L511.47 703.17L511.47 703.83C511.47 705.01 510.48 705.90 509.20 705.90M508.90 707.06C509.99 707.06 511.02 706.45 511.51 705.52L511.54 705.52L511.54 706.92L512.83 706.92L512.83 701.30C512.83 699.69 511.63 698.65 509.72 698.65C507.80 698.65 506.59 699.73 506.50 701.14L507.81 701.14C507.98 700.34 508.64 699.85 509.69 699.85C510.81 699.85 511.47 700.44 511.47 701.44L511.47 702.12L509.14 702.25C507.27 702.36 506.20 703.23 506.20 704.62C506.20 706.08 507.28 707.06 508.90 707.06 M520.54 709.96C522.01 709.96 522.68 709.39 523.38 707.49L526.57 698.79L525.14 698.79L522.89 705.56L522.87 705.56L520.62 698.79L519.16 698.79L522.16 706.93L521.98 707.50C521.66 708.44 521.24 708.81 520.48 708.81C520.31 708.81 520.10 708.80 519.95 708.77L519.95 709.91C520.10 709.94 520.38 709.96 520.54 709.96 M531.89 699.83C533.17 699.83 534.02 700.80 534.05 702.16L529.64 702.16C529.73 700.81 530.62 699.83 531.89 699.83M534.02 704.59C533.80 705.36 533.04 705.88 532.01 705.88C530.55 705.88 529.63 704.86 529.63 703.30L529.63 703.22L535.46 703.22L535.46 702.71C535.46 700.25 534.11 698.65 531.91 698.65C529.67 698.65 528.23 700.37 528.23 702.89C528.23 705.44 529.65 707.06 531.98 707.06C533.75 707.06 535.13 706.01 535.36 704.59 M540.70 705.90C539.73 705.90 539.08 705.40 539.08 704.62C539.08 703.86 539.70 703.37 540.80 703.30L542.97 703.17L542.97 703.83C542.97 705.01 541.98 705.90 540.70 705.90M540.40 707.06C541.49 707.06 542.52 706.45 543.01 705.52L543.04 705.52L543.04 706.92L544.33 706.92L544.33 701.30C544.33 699.69 543.13 698.65 541.22 698.65C539.30 698.65 538.09 699.73 538 701.14L539.31 701.14C539.48 700.34 540.14 699.85 541.19 699.85C542.31 699.85 542.97 700.44 542.97 701.44L542.97 702.12L540.64 702.25C538.77 702.36 537.70 703.23 537.70 704.62C537.70 706.08 538.78 707.06 540.40 707.06 M547.13 706.92L548.49 706.92L548.49 701.86C548.49 700.71 549.18 699.95 550.23 699.95C550.56 699.95 550.85 699.99 550.96 700.03L550.96 698.71C550.85 698.69 550.65 698.65 550.41 698.65C549.46 698.65 548.71 699.22 548.45 700.12L548.41 700.12L548.41 698.79L547.13 698.79" fill="#000000"/></g></svg>